<svg width="693.4" height="153.95" version="1.1" viewBox="0 0 693.4 153.95" xmlns="http://www.w3.org/2000/svg">
 <defs>
  <clipPath id="clipPath1341">
   <path d="m100 86h16v19h-16z"/>
  </clipPath>
  <clipPath id="clipPath1347">
   <path d="m103.22 102.45 3.183 4e-3c1.656 0 2.801-0.187 3.406-0.586 0.629-0.371 1.09-0.769 1.411-1.187 0.312-0.391 0.648-1.035 1.015-1.914s0.547-2.008 0.547-3.383c0-1.195-0.195-2.305-0.601-3.344-0.403-1.019-1.055-1.84-1.938-2.457-0.887-0.613-2.539-0.91-4.973-0.914l-2.035-4e-3zm-2.504 1.867 0.019-17.531 5.828 8e-3c2.254 4e-3 3.969 0.328 5.114 0.973 1.14 0.629 2.054 1.593 2.707 2.855 0.691 1.274 1.023 2.781 1.023 4.516 0 1.703-0.32 3.242-0.906 4.625-0.602 1.375-1.531 2.484-2.762 3.324-1.242 0.82-2.949 1.238-5.148 1.238z"/>
  </clipPath>
  <clipPath id="clipPath1357">
   <path d="m0 0h521v116h-521z"/>
  </clipPath>
  <clipPath id="clipPath1369">
   <path d="m121 86h17v19h-17z"/>
  </clipPath>
  <clipPath id="clipPath1375">
   <path d="m126.67 97.621 5.969 4e-3 -3.004-7.539zm-4.996 6.723 6.973-17.524h2.449l6.836 17.539-2.688-4e-3 -1.914-4.855-7.414-0.012-1.922 4.856z"/>
  </clipPath>
  <clipPath id="clipPath1385">
   <path d="m0 0h521v116h-521z"/>
  </clipPath>
  <clipPath id="clipPath1401">
   <path d="m0 0h521v116h-521z"/>
  </clipPath>
  <clipPath id="clipPath1415">
   <path d="m0 0h521v116h-521z"/>
  </clipPath>
  <clipPath id="clipPath1429">
   <path d="m0 0h521v116h-521z"/>
  </clipPath>
  <clipPath id="clipPath1443">
   <path d="m0 0h521v116h-521z"/>
  </clipPath>
  <clipPath id="clipPath1457">
   <path d="m0 0h521v116h-521z"/>
  </clipPath>
  <clipPath id="clipPath1471">
   <path d="m0 0h521v116h-521z"/>
  </clipPath>
  <clipPath id="clipPath1485">
   <path d="m0 0h521v116h-521z"/>
  </clipPath>
  <clipPath id="clipPath1499">
   <path d="m0 0h521v116h-521z"/>
  </clipPath>
  <clipPath id="clipPath1513">
   <path d="m0 0h521v116h-521z"/>
  </clipPath>
  <clipPath id="clipPath1527">
   <path d="m0 0h521v116h-521z"/>
  </clipPath>
  <clipPath id="clipPath1541">
   <path d="m0 0h521v116h-521z"/>
  </clipPath>
  <clipPath id="clipPath1555">
   <path d="m0 0h521v116h-521z"/>
  </clipPath>
  <clipPath id="clipPath1569">
   <path d="m0 0h521v116h-521z"/>
  </clipPath>
  <clipPath id="clipPath1583">
   <path d="m0 0h521v116h-521z"/>
  </clipPath>
  <clipPath id="clipPath1597">
   <path d="m0 0h521v116h-521z"/>
  </clipPath>
  <clipPath id="clipPath1611">
   <path d="m0 0h521v116h-521z"/>
  </clipPath>
  <clipPath id="clipPath1625">
   <path d="m0 0h521v116h-521z"/>
  </clipPath>
  <clipPath id="clipPath1639">
   <path d="m0 0h521v116h-521z"/>
  </clipPath>
  <clipPath id="clipPath1653">
   <path d="m0 0h521v116h-521z"/>
  </clipPath>
  <clipPath id="clipPath1667">
   <path d="m0 0h521v116h-521z"/>
  </clipPath>
  <clipPath id="clipPath1681">
   <path d="m0 0h521v116h-521z"/>
  </clipPath>
  <clipPath id="clipPath1695">
   <path d="m0 0h521v116h-521z"/>
  </clipPath>
  <clipPath id="clipPath1709">
   <path d="m0 0h521v116h-521z"/>
  </clipPath>
  <clipPath id="clipPath1723">
   <path d="m0 0h521v116h-521z"/>
  </clipPath>
  <clipPath id="clipPath1737">
   <path d="m0 0h521v116h-521z"/>
  </clipPath>
  <clipPath id="clipPath1751">
   <path d="m0 0h521v116h-521z"/>
  </clipPath>
  <clipPath id="clipPath1765">
   <path d="m0 0h521v116h-521z"/>
  </clipPath>
  <clipPath id="clipPath1779">
   <path d="m0 0h521v116h-521z"/>
  </clipPath>
  <clipPath id="clipPath1793">
   <path d="m0 0h521v116h-521z"/>
  </clipPath>
  <clipPath id="clipPath1807">
   <path d="m0 0h521v116h-521z"/>
  </clipPath>
  <clipPath id="clipPath1821">
   <path d="m0 0h521v116h-521z"/>
  </clipPath>
  <clipPath id="clipPath1835">
   <path d="m0 0h521v116h-521z"/>
  </clipPath>
  <clipPath id="clipPath1849">
   <path d="m0 0h521v116h-521z"/>
  </clipPath>
  <clipPath id="clipPath1863">
   <path d="m0 0h521v116h-521z"/>
  </clipPath>
  <clipPath id="clipPath1877">
   <path d="m0 0h521v116h-521z"/>
  </clipPath>
  <clipPath id="clipPath1891">
   <path d="m0 0h521v116h-521z"/>
  </clipPath>
  <clipPath id="clipPath1905">
   <path d="m0 0h521v116h-521z"/>
  </clipPath>
  <clipPath id="clipPath1919">
   <path d="m0 0h521v116h-521z"/>
  </clipPath>
  <clipPath id="clipPath1933">
   <path d="m0 0h521v116h-521z"/>
  </clipPath>
  <clipPath id="clipPath1947">
   <path d="m0 0h521v116h-521z"/>
  </clipPath>
  <clipPath id="clipPath1961">
   <path d="m0 0h521v116h-521z"/>
  </clipPath>
  <clipPath id="clipPath1975">
   <path d="m0 0h521v116h-521z"/>
  </clipPath>
 </defs>
 <g transform="matrix(1.3333 0 0 1.3333 0 6.5154e-6)">
  <g clip-path="url(#clipPath1341)">
   <g clip-path="url(#clipPath1347)">
    <g clip-path="url(#clipPath1357)">
     <path d="m0 0h521v116h-521z"/>
    </g>
   </g>
  </g>
  <g clip-path="url(#clipPath1369)">
   <g clip-path="url(#clipPath1375)">
    <g clip-path="url(#clipPath1385)">
     <path d="m0 0h521v116h-521z"/>
    </g>
   </g>
  </g>
  <g clip-path="url(#clipPath1401)">
   <path d="m38.18 42.852c-0.75 0.086-1.336 0.168-1.668 0.168-0.324 0-0.742-0.082-1.16-0.25-0.739-0.5-1.571-0.997-2.489-1.418-1.078-0.579-1.824-0.832-2.406-0.832-0.414 0-0.828 0.668-1.16 2.074-0.34 1.164-0.5 2.074-0.5 2.734 0 0.504 0.566 0.836 1.824 1.004 0.414 0 0.988 0 1.824 0.09 1.239 1.824 1.993 2.824 2.231 3.07 0.75 0.578 1.504 0.836 2.332 0.668 0.578-0.086 1.07-0.91 1.664-2.406 0.578-1.496 0.836-2.566 0.836-3.324 0-1.164-0.418-1.657-1.328-1.578m10.238-27.641c-0.504 0-1.328 0.168-2.484 0.582-1.086 0.41-1.914 0.574-2.329 0.574-0.171-0.578-0.335-0.992-0.574-1.246-1.418-1.828-3.746-2.746-7.152-2.75-1.231 0-3.238 0.91-5.977 2.82-1.246 0.911-2.406 1.325-3.32 1.325-0.586 0-1.078-0.172-1.672-0.582-1.398-0.918-2.156-1.418-2.316-1.418-0.41 0-1.574 0.332-1.821 0.332-1.253 0-3.996-0.84-4.66-0.84-1.574-4e-3 -3.562 2.246-3.562 3.816-4e-3 0.918 1.066 2.086 3.144 3.582 2.153 1.492 3.653 2.239 4.567 2.239 1.242 3e-3 4.148-0.817 5.234-0.817 0.91 0 2.16 1.496 3.641 4.484 0.508 1 1.168 2.489 1.996 4.571 0.246-2.406 0.496-4.071 0.75-5.153 0.75-3.484 1.508-5.304 2.414-5.386 0.25-0.09 0.574 0.328 0.996 1.164 0.41 0.742 0.746 1.156 1.078 1.156 1.914 4e-3 4.488-0.816 7.723-2.562 0.918 0.078 1.742 0.582 2.66 1.418l2.324 2.984c0-0.328 0.328-2.145 1.082-5.391 0.336-1.574 0.5-2.57 0.414-3.07-0.164-1.246-0.91-1.828-2.156-1.832m3.144 14.703-0.832 0.824-17.109-0.019c-0.09 0.086-0.332 1-0.906 2.91-0.258 0.914-0.594 1.574-0.922 1.832-0.828-1-1.832-2.418-2.981-4.242-0.257 0.996-0.339 2.156-0.339 3.488-4e-3 1.078 0.332 3.57 0.328 4.566 0.246-0.585 0.91-0.828 1.828-0.824 1.652 0 2.894 0.242 3.648 0.75l2.235 1.996c0.25 0.078 0.504-0.086 0.918-0.418l0.586-0.582c0.25 4e-3 1.402 0.504 1.82 0.504 0.254 0.574 0.418 2.324 0.492 5.067l0.332 8.218-11.551-0.011-0.492 1.078-0.027 22.918-16.778-0.02 0.059-57.215c-0.734-0.414-1.078-1.242-1.074-2.664 0-1.148 0.758-2.484 2.246-3.976 0.582-0.582 1.586-1.41 2.91-2.321 1.746 0.332 3.57 0.657 5.32 1 2.567 0.586 4.231 1.165 4.805 1.747 0.75 0 2.91-0.821 6.484-2.481 1.747-0.824 2.993-1.242 3.661-1.242l3.902 1.086c0.652 0.25 1.242 0.336 1.652 0.336 0.25 0 0.5 0 0.668-0.086 0.332 1.582 0.993 2.406 1.989 2.406 0.418 0 1.25-0.16 2.496-0.496 1.57-0.41 2.488-0.582 2.656-0.656 1.66 0 3.156 1.828 2.738 3.492z" fill="#28aae1"/>
  </g>
  <g clip-path="url(#clipPath1415)">
   <path d="m77.879 40.32c-1.246-0.664-1.91-0.996-2.152-0.996-1 0-1.497 1.492-1.5 4.563v0.832c0.074 0 0.324-0.332 0.832-0.992 0.57-0.665 1.074-0.915 1.57-0.832 0.328 0.085 0.668 0.335 1 0.753 0.086 0.082 0.246 0.321 0.41 0.743 0.086-0.993 0.344-2.239 0.84-3.649-0.164 0-0.496-0.172-1-0.422m3.086-10.043c-0.16 0.34-0.414 0.75-0.746 1.325-0.586 0.914-1.246 1.332-1.828 1.332-0.254 0-0.914-0.579-2.079-1.664-1.082-1.082-2.16-1.579-3.167-1.504l-8e-3 9.218c0.425-0.906 1.172-1.488 2.425-1.656 2.899 0.918 4.559 1.414 5.063 1.332 0.914-0.156 1.332-0.988 1.332-2.574v-1.242c0.168-1.989-0.168-3.489-0.992-4.567m-16.266-10.148 4e-3 -1.414c0.328 0.086 0.578 0.168 0.742 0.25 0.504 0.254 0.668 0.426 0.582 0.586-0.328 0.168-0.746 0.332-1.328 0.578m29.309 2.773c-0.414-2.41-0.914-3.906-1.492-4.492-0.993 0.25-2.071-0.66-3.321-2.656-1.238-1.988-2.23-2.988-3.058-2.992-1 0-2.078 1-3.239 3.07-1.183 2.066-2.171 3.07-3.007 3.066-0.414 0-1.153-0.828-2.145-2.57-0.922-1.754-1.66-2.664-2.156-2.746-1.082-0.168-2.492 0.41-4.328 1.738-1.742 1.242-2.91 1.899-3.403 1.899-0.168 0-1.004-0.66-2.488-2.074-1.492-1.407-2.578-2.079-3.312-2.079-1.258-4e-3 -2.168 0.496-2.758 1.489-0.071 0.082-0.574 1.5-1.664 4.32 3.078 3.074 4.648 6.145 4.644 9.223 0 1.078 0 1.324-0.242 1.656h0.484c3.997-5.473 6.489-8.207 7.489-8.207 0.914 0 2.074 1 3.566 2.996 0.578 0.742 1.918 2.652 4.152 5.73 0.411-1.656 0.829-3.074 1.25-4.234 1.079-3.152 2.079-4.641 2.825-4.48 0.664 0.164 1.328 0.836 2.082 1.992 0.16 0.246 0.824 1.496 1.894 3.746 0.25-0.09 0.59-0.582 1.168-1.66 0.582-1.082 1.164-1.664 1.742-1.746 1.164-0.168 2.153 0.75 3.075 2.656l2.48 7.484c0.082-0.496 0.242-1.656 0.496-3.574 0.094-0.668 0.176-1.824 0.43-3.484-0.332-0.422-0.754-1.746-1.164-4.071m2.976 13.203c0 2.571-0.336 4.399-0.922 5.571-0.91 1.742-2.906 3.476-5.902 5.222 2.406 1.332 3.988 3.661 4.731 7.067 0.414 1.984 0.66 4.973 0.734 9.047l0.16 10.961c-4e-3 2.742-2.34 4.066-5.324 4.062l-9.293-0.097c-0.758 0-1.25-0.239-1.582-0.833l0.105-24.078c-1.41-0.086-3.648-0.168-6.57-0.336l-0.488 0.825-0.024 24.5-16.023-0.02 0.062-60.125c0-1.234 0.575-2.648 1.829-4.226 1.246-1.665 2.414-2.485 3.582-2.481 1.574 0 2.816 0.66 3.726 2.078 0.996 1.403 1.653 2.074 2.074 2.156 1.907-0.996 4.489-2.148 7.895-3.398 0.746-0.16 1.742 0.836 3.07 3 0.656 1.078 1.238 1.574 1.653 1.574 0.343 0 1.332-1.242 2.992-3.812 0.836-1.254 1.75-1.914 2.668-1.91 0.996-0.079 2.074 0.836 3.316 2.914 1.242 1.988 2.492 2.984 3.735 2.988 0.734 1.574 1.406 3.328 1.82 5.398 0.078 0.496 0.242 1.41 0.488 2.739 1 2.746 1.496 5.742 1.492 8.968z" fill="#28aae1"/>
  </g>
  <g clip-path="url(#clipPath1429)">
   <path d="m109.71 17.605c0.242-0.339 0.656-0.578 1.242-0.664 1.008 4e-3 1.82 0.418 2.578 1.325v0.339c-1.492 0-2.754-0.343-3.82-1m4.152-5.394c-0.914 0-3.316 0.578-4.312 0.578-0.332 0-0.918-0.164-1.668-0.586l0.836 1.906c-0.996 0.422-1.668 0.582-1.992 0.5-0.418 0-0.672-0.25-0.672-0.66l0.168-1.164c-1.567 0.66-2.325 2.074-2.328 4.313 0 0.746 0.414 3.16 1.324 7.144 0.746 0.414 1.164 1.328 1.328 2.906-4e-3 0.582-0.254 2.239-0.844 4.989 0 1.16 0.582 2.156 1.832 3.066 0.41-0.578 0.656-1.492 0.66-2.898 0-1.246-0.074-2.418-0.16-3.493 4e-3 -1.246 0.5-2.41 1.5-3.57 0.66 0 1.317 0.496 1.988 1.5 0.586 1.242 1.239 2.406 1.832 3.57 2.411-3.406 3.661-8.624 3.665-15.695-0.329-1.57-1.407-2.406-3.157-2.406m3.59 65.855-15.113-0.015-0.02-59.797c0-1.406 0.418-2.899 1.157-4.473 0.929-1.828 2-2.734 3.253-2.734l1.989 0.332c1.078 4e-3 4.062-0.5 5.148-0.496 1.66 0 2.906 0.914 3.735 2.746z" fill="#28aae1"/>
  </g>
  <g clip-path="url(#clipPath1443)">
   <path d="m162.84 41.492c-0.344-0.246-0.758-0.41-1.336-0.41-0.422 0-1.41 0.324-2.899 1.07-0.839 0.41-1.496 0.578-1.992 0.578-0.332 0-0.582 0-0.754-0.078-0.504-0.09-1.332-0.336-2.484-0.836-1.168-0.582-2.07-0.832-2.746-0.836-1.914 0-3.66 2.493-3.914 4.477 0 0.586 0.168 1.59 0.594 2.992 0.41 1.586 0.812 2.414 1.148 2.5 0.508 0.164 0.91-0.082 1.242-0.668 0.922-1.496 1.598-2.246 2.086-2.246 0.992 4e-3 1.836 0.754 2.488 2.25 0.247 0.668 0.915 3.488 1.895 8.559 1.332-6.227 2.586-9.297 3.836-9.297 0.738 4e-3 1.41 0.414 2.16 1.168 0.5 0.75 0.984 1.406 1.488 2.074 0.914 0.246 1.668-1.738 2.243-5.977 0-2.164-0.981-3.902-3.055-5.32m-18.957 12.856c-0.16-1.336-0.235-2.582-0.235-3.739 4e-3 -2.074 0.243-3.652 0.758-4.82 3.059-3.894 4.571-6.305 4.574-7.211 8e-3 -7.648-0.328-11.637-1-11.883-0.406-0.25-1.574 1.493-2.558 1.493-0.598 0-1.43-2.243-2.172-2.243-1.074 0-1.668 1.489-1.668 4.563l-0.039 34.965c-4e-3 1.742 1.746 2.906 3.656 2.906 2.739 4e-3 4.153-2.899 4.16-8.793 0-1.66 4e-3 -2.832-0.078-3.414 0-0.164-0.078-0.41-0.168-0.66zm-4.856-38.207h-0.668l-0.168-0.164c0-0.5 0.258-0.754 0.836-0.836l1.332 0.171v0.333c0 0.335-0.418 0.5-1.332 0.496m19.922 5.668c-0.742-1.911-1.738-3.157-2.89-3.653-1.594-0.59-3.082-1.082-4.575-1.676-1.746-0.906-3.234-1.328-4.57-1.332-0.582 0-2.234 0.75-2.988 0.5-0.664-1.078-0.817-2.16-3.899-2.5-1.078 0-2.5 0.993-4.316 2.903-1.758 1.906-3.16 2.906-4.164 2.906-0.336 0-1.652-0.914-2.32-0.832-1.415 0-2.407 1.574-2.993 4.813-0.168 1.074-0.339 2.652-0.586 4.734-3e-3 2.402 0.161 6.058 0.481 11.035 0.582-1.406 2.254-5.559 4.832-12.281 1.242-3.317 2.582-4.973 3.91-4.973 1.414 0 2.082 1.664 2.078 4.981-4e-3 1.66-4e-3 2.488 0.071 2.574 0.746 0 1.582-0.996 2.41-2.906 0.918-1.989 1.664-2.981 2.328-2.981 1.172 0 1.996 0.66 2.57 1.91 0.582 1.246 0.836 1.821 0.914 1.821 0.422 0.086 0.836-0.493 1.328-1.739 0.766-1.742 1.25-2.988 1.672-3.566 0.91-1.328 1.996-1.988 3.238-1.988 1.997 3e-3 3.239 1.742 3.739 5.316 0.156 1.332 0.828 2.574 2.058 3.824 1.25 1.16 1.911 2.082 2.078 2.66 0.586-1.66 0.836-3.242 0.836-4.82 0-1.242-0.418-2.816-1.242-4.73m7.11 30.39c-0.172 0.59-0.497 1.586-1 3l-0.024 21.59c-0.574 0.578-1.57 0.91-2.992 0.906-0.66 0-1.41-0.078-2.231-0.246-0.585-1.414-1.085-2.32-1.332-2.746-0.664-1.082-1.406-1.656-2.152-1.824-3.496 3.484-7.902 5.219-13.137 5.211-12.703-0.012-19.089-7.078-19.074-21.113l8e-3 -6.637v-2.91c0.086-1.414 0.086-2.328 0.09-2.735 0.094-3.906-0.16-6.73-0.735-8.64l1.348-14.035c4e-3 -3.743 2.652-5.641 8.051-5.633h0.836c0 0.078 0 0.078 0.078 0.078l2.746-3.235c1.414-1.41 2.492-2.148 3.332-2.148 0.988 0 1.899 0.578 2.824 1.742 0.903 1.082 1.645 1.66 2.231 1.66 1.824-0.656 3.324-0.992 4.402-0.988 0.918 0 1.82 0.336 2.738 0.996 2.161 1.5 3.571 2.25 4.325 2.254 0.402 0 0.652 0 0.824-0.09 5.543 6.489 8.375 12.879 8.367 19.114 0 1.07-0.09 1.906-0.336 2.656l-15.449 0.148c0 0.578 0.754 1.078 2.336 1.574 1.32 0.418 2.308 0.676 3.066 0.676 0.41 0 1.653-0.168 3.731-0.582 1.82-0.332 2.988-0.414 3.402-0.328 1.254 0.418 2.41 1.418 3.316 2.996 0.922 1.574 1.422 3.07 1.418 4.481 0 1-0.336 2.578-1.007 4.808" fill="#28aae1"/>
  </g>
  <g clip-path="url(#clipPath1457)">
   <path d="m201.56 19.117c-0.332 0.664-0.825 0.996-1.41 0.996l-0.333-0.168c-0.253-0.078-0.585-0.25-0.906-0.586l-0.746-1.828h0.324c0.25 0.414 0.746 0.824 1.489 1.332l1.828-0.832zm-10.012 44.328c-0.422 0.082-0.762 0.918-1.086 2.414-0.242 1.246-0.422 2.161-0.422 2.825 0 0.742 0.082 1.402 0.332 1.902 0.168-0.078 0.332-0.078 0.59-0.078 0.816 0 1.652 0.578 2.488 1.824 0.325 0.504 0.743 1.328 1.239 2.414 0.254-1.258 0.582-3.074 1-5.476 0.086-2.243-1.243-4.243-4.141-5.825m5.098-34.027c4e-3 -1.344-0.325-2-1.071-2-0.09 0-0.414 0.328-0.929 1.078-0.485 0.742-0.903 1.07-1.321 1.07-0.246 0.086-0.5-0.332-0.664-1.16-0.164-0.918-0.332-1.418-0.582-1.504-0.992-0.328-1.996 1.418-1.996 2.508l-0.035 32.539c0.336-0.328 0.832-0.578 1.504-0.66 0.406 0 2.07 1.332 5.055 4.074zm-15.688-6.918c-0.25 0-0.57-0.176-0.828-0.422l-0.918-0.75 0.172-0.566c0.746 0 2.152 0.906 2.152 1.566-0.156 0.086-0.324 0.172-0.578 0.172m28.399 3.27c-0.332-1.082-0.407-1.747-0.332-2.082-0.829-0.415-1.399-1.743-1.821-3.899-0.41-2.742-0.66-4.152-0.742-4.32-0.25-0.586-1.25-1.332-2.98-2.078-1.754-0.84-2.911-1.258-3.657-1.258-0.754 0.836-1.422 1.664-2.168 2.496-1.074 1.242-1.828 1.902-2.242 1.902-0.086 0-1.238-1.992-2.656-1.992-0.414 0-1.242 0.66-2.664 1.91-1.332 1.242-2.238 1.813-2.746 1.895-0.735-1.321-1.649-1.989-2.817-1.992-0.414 0-1.242 0.253-2.644 0.753-1.34 0.493-2.246 0.739-2.824 0.739l-1-0.332c-0.59 0.168-1.336 0.738-2.411 1.824-1.003 1.078-1.507 1.824-1.507 2.324-0.164 0.742 0.086 1.988 0.754 3.567 0.66 1.585 1.402 2.5 2.152 2.664 0.25 0.082 0.832-0.25 1.914-1 1.078-0.743 1.738-1.153 2.074-1.243 0.75 0 1.324 0.34 1.742 0.918 0.578-0.168 1.414-0.992 2.418-2.402 1.078-1.414 1.907-2.16 2.489-2.16 0.668 0 1.656 0.504 2.984 1.508 1.328 0.992 2.242 1.484 2.742 1.488 0.578 0 1.074-0.66 1.328-2.07s0.75-2.153 1.324-2.149c1.586 0 3.161 1.235 4.571 3.645 0.582 0.918 1.41 2.418 2.488 4.328 0.574-2.496 1.332-3.742 2.246-3.742 0.746 0 2.242 5.324 4.633 15.875l-0.324-9.637c0.504-0.41 0.754-1.082 0.754-1.816-0.086-0.508-0.5-1.758-1.078-3.664m4.457 24.082c-0.012 11.878-2.106 19.847-6.336 23.918-2.989 2.902-8.059 4.382-15.121 4.375-13.622-0.012-20.422-8.493-20.403-25.438 4e-3 -5.719 0.102-9.371 0.344-10.871 4e-3 -5.731 0.766-10.043 2.18-13.113 0-0.504-0.25-1.582-0.743-3.243-0.5-1.668-0.742-2.824-0.742-3.492 0-1.234 0.668-2.652 2.082-4.07 1.403-1.484 2.735-2.234 3.992-2.23 0.575 0.25 0.989 0.335 1.329 0.335 1.238-1.25 2.648-1.835 4.234-1.832 1.734 4e-3 2.641 2.004 2.723 2.004 0.593 0.082 1.5-0.496 2.746-1.574 1.254-1.078 2.086-1.66 2.328-1.582 0.582 0.094 2.234 1.008 2.324 1.008 0.504 0 1.5-0.5 2.988-1.5 1.586-0.992 2.496-1.492 2.914-1.57 1.414 0 2.829 0.421 4.403 1.335 1.566 0.911 2.488 1.993 2.816 3.243 0.082 0.082 0.985 3.234 2.731 9.629 1.238 4.656 1.98 7.476 2.316 8.48 0.574 5.727 0.902 11.129 0.895 16.188" fill="#28aae1"/>
  </g>
  <g clip-path="url(#clipPath1471)">
   <path d="m281.23 26.754-9.793-0.012-0.043 36.461c-0.207-2.437-0.356-3.836-0.469-4.234-0.262-1.77-0.731-3.375-1.438-4.813v1.571c-4e-3 1.441-0.484 4.218-1.453 8.308-0.969 4.094-1.465 7.449-1.465 10.055-4e-3 1.437 0.102 2.812 0.325 4.144l-3.907-4e-3c1.719-3.703 2.586-6.886 2.59-9.55 4e-3 -1.657-0.535-3.992-1.558-7.016-1.071-3.019-1.586-5.773-1.586-8.262 4e-3 -1.34 0.121-2.742 0.343-4.242-2.445 2.824-3.734 5.895-3.875 9.219-0.144 3.324-0.976 5.922-2.539 7.809-0.996-1.5-1.488-3.333-1.484-5.485 0-1.504 0.32-3.812 0.961-6.937 0.629-3.121 0.953-5.383 0.953-6.77 4e-3 -2.543-0.789-4.512-2.387-5.898 0.219 1.281 0.317 2.433 0.317 3.488-4e-3 2.656-0.907 5.426-2.754 8.301l0.027-26.164-9.867-8e-3 0.016-14.945 39.101 0.042z" fill="#ed1c24"/>
  </g>
  <g clip-path="url(#clipPath1485)">
   <path d="m319.04 78.293-3.898-4e-3c0.281-1.223 0.41-2.488 0.414-3.809 3e-3 -2.554-0.567-5.625-1.735-9.23-1.433-4.484-2.23-7.121-2.398-7.891l7.64 8e-3zm-30.961-12.07c-0.176 0-0.25-0.086-0.246-0.254l0.016-16.778c0.05 0.664 0.406 2.567 1.062 5.731 0.445 2.383 0.672 4.297 0.672 5.738-4e-3 2.215-0.5 4.063-1.504 5.563m30.027-39.426-10.804-0.012-8e-3 9.387 8.641 0.012-0.016 15.281-8.645-0.012-4e-3 5.902 2.747 4e-3c-0.118 0.223-0.477 2.18-1.086 5.887-0.332 2.219-1.309 3.938-2.922 5.145-0.117-0.77-0.164-1.657-0.164-2.649 0-1.324 0.211-3.324 0.59-5.98 0.378-2.668 0.593-4.602 0.593-5.817 4e-3 -2.937-0.785-5.234-2.32-6.898v1.828c-4e-3 1.937-0.621 4.625-1.875 8.059-1.266 3.429-1.914 6.031-1.961 7.8-0.723-0.441-1.332-1.941-1.828-4.488-0.055-0.266-0.442-2.797-1.149-7.547-0.453 1.871-0.918 3.781-1.421 5.723-0.344 1.164-0.922 2.269-1.762 3.32 0.238-3.101-0.535-6.086-2.313-8.93-1.761-2.859-2.64-5.531-2.64-8.027 4e-3 -1.105 0.113-2.312 0.343-3.652-1.23 1.226-1.98 2.601-2.25 4.156l0.036-33.469 30.234 0.035z" fill="#ed1c24"/>
  </g>
  <g clip-path="url(#clipPath1499)">
   <path d="m369.72 64.809c-0.164 0.332-0.469 0.836-0.914 1.5-0.719-1.504-1.071-3.379-1.071-5.653 4e-3 -1.277 0.364-4.402 1.086-9.383 0.614 3.043 0.907 6.43 0.903 10.137zm-19.649-28.344 0.012-9.637-4.898-4e-3 -0.012 9.637zm19.688-8.781c-8e-3 8.195-2.707 13.261-8.078 15.195 2.386 0.668 4.277 2.238 5.652 4.734-0.172 1.164-0.926 3.211-2.25 6.149-1 2.375-1.418 5.062-1.254 8.054-0.711-1.054-1.211-2.16-1.488-3.324-0.336-1.937-0.637-3.851-0.914-5.726-0.328 2.539-0.656 5.078-1 7.636-0.336 2.547-0.754 4.008-1.246 4.395-0.067-1.77-0.637-4.707-1.742-8.805-0.997-3.605-1.399-6.558-1.227-8.89-1.121 1.613-1.672 3.824-1.676 6.648 0 1.219 0.141 3.172 0.457 5.848 0.305 2.691 0.449 4.699 0.449 6.031-3e-3 1.051-0.066 1.996-0.171 2.812l-0.258-0.156c-0.047-1.441-0.489-3.687-1.321-6.73-0.769-2.883-1.152-5.535-1.152-7.973 4e-3 -1.387 0.094-2.824 0.254-4.324-1.504 2.273-2.402 4.652-2.746 7.133l8e-3 -5.387h-2.164c0.234-1.77 0.347-3.156 0.347-4.156 4e-3 -2.434-0.609-4.313-1.832-5.653 0.387 4.157 0.051 7.426-1 9.805h-0.25v0.996c-1.605 3.258-2.359 6.524-2.254 9.797-0.722-1.055-1.218-2.16-1.488-3.324-0.281-1.938-0.586-3.852-0.914-5.727-0.328 2.539-0.66 5.078-1.004 7.637-0.336 2.547-0.746 4.008-1.25 4.398-0.043-1.773-0.547-4.398-1.488-7.894-0.883-3.321-1.309-5.949-1.309-7.883 0-0.672 0.051-1.309 0.16-1.918-1.281 1.719-1.902 4.043-1.902 6.977-4e-3 1.214 0.117 3.129 0.398 5.73 0.274 2.598 0.415 4.539 0.411 5.82 0 1.047-0.071 1.993-0.172 2.809-1.332-1.488-2.102-3.648-2.321-6.469-0.277-3.437-0.832-6.008-1.656-7.722 0.215 1.652-0.199 4.593-1.25 8.796-1.219 4.707-1.836 8.415-1.84 11.133 0 1.442 0.133 2.813 0.407 4.145l-1.985-4e-3 0.071-66.438 31.472 0.036c8.36 0.011 12.531 5.269 12.52 15.789" fill="#ed1c24"/>
  </g>
  <g clip-path="url(#clipPath1513)">
   <path d="m436.15 64.637c-0.05 0-0.113 0.031-0.183 0.121-0.102 0.09-0.192 0.121-0.301 0.121-0.062-1.828-0.699-4.488-1.906-7.977-1.219-3.488-1.824-6.23-1.824-8.226 4e-3 -0.496 4e-3 -0.992 4e-3 -1.492-1.434 1.609-2.165 3.851-2.168 6.722 0 1.168 0.171 3.055 0.5 5.645 0.328 2.605 0.488 4.543 0.488 5.824 0 1.156-0.086 2.215-0.254 3.145-1.633-1.426-2.617-3.594-2.942-6.469-0.363-3.336-1.156-5.903-2.355-7.723v1.399c0 1.449-0.715 4.269-2.129 8.476-1.422 4.203-2.121 7.633-2.125 10.301 0 1.32 0.141 2.629 0.406 3.894h-2.656l0.027-26.574-9.652 21.164c-0.16-2.375-0.773-5.531-1.828-9.472-0.984-3.707-1.48-6.317-1.48-7.809 0-0.492 0-0.965 3e-3 -1.402-0.906 1.769-1.507 4.34-1.769 7.722-0.266 2.871-1.043 5.039-2.332 6.461-0.149-0.988-0.238-2.07-0.238-3.222 4e-3 -1.332 0.144-3.274 0.425-5.821 0.286-2.547 0.426-4.402 0.426-5.566 4e-3 -2.875-0.605-5.117-1.82-6.731 0.207 2.106-0.035 4.547-0.762 7.309-0.66 2.332-1.301 4.648-1.906 6.981l-2.25-5.243c-0.047-0.707-0.211-1.851-0.488-3.394 0 0.215-0.039 0.535-0.133 0.945-0.071 0.414-0.121 0.766-0.121 1.035l-1.243-2.984-7e-3 8.387c-0.215 0.339-0.614 0.878-1.157 1.66 0.219-3.102-0.336-6.004-1.656-8.727-1.437-2.933-2.148-5.59-2.144-7.972 0-1.161 0.105-2.465 0.332-3.903-1.325 1.383-1.996 3.403-2 6.067 0 1.382 0.238 3.589 0.746 6.64 0.484 3.047 0.73 5.309 0.726 6.813 0 2.218-0.422 4.066-1.25 5.566-1.261-1.89-1.949-4.492-2.023-7.812-0.082-3.325-1.117-6.395-3.113-9.227 0.172 1.449 0.254 2.797 0.254 4.07-4e-3 2.551-0.43 5.344-1.301 8.387-0.86 3.047-1.27 5.402-1.274 7.055 0 2.668 0.676 5.851 2.059 9.558l-5.402-7e-3 0.07-66.438 24.332 0.027 5.449 17.946 5.434-17.934 24.57 0.027z" fill="#ed1c24"/>
  </g>
  <g clip-path="url(#clipPath1527)">
   <path d="m465.64 57.77c-0.157 0.664-0.25 2.16-0.25 4.488-0.934-1.117-1.692-2.606-2.227-4.492zm21.84 5.503c-4e-3 4.493-0.567 7.915-1.676 10.301-1.336 3.047-3.684 4.895-7.063 5.547 1.828-3.809 2.754-7.098 2.758-9.867 0-1.715-0.519-4.09-1.586-7.102-1.031-3.019-1.566-5.699-1.562-8.023 4e-3 -1.434 0.148-2.957 0.422-4.563-2.106 2.262-3.379 4.481-3.817 6.633-0.183 1.668-0.308 3.356-0.433 5.067-0.215 1.945-1.016 3.769-2.407 5.48-1.051-1.605-1.574-3.539-1.57-5.808 0-1.508 0.332-3.786 0.961-6.86 0.637-3.07 0.961-5.293 0.965-6.676 0-2.605-0.856-4.601-2.571-5.988 0.258 1.441 0.407 2.746 0.407 3.902-4e-3 2.379-0.891 4.957-2.657 7.735l0.028-26.59-4.992-8e-3 -0.032 29.07c-0.05-0.5-0.214-1.328-0.488-2.48-0.445 2.539-0.898 5.055-1.34 7.555-0.508 2.644-1.062 4.195-1.668 4.644-0.047-1.832-0.707-4.484-1.929-7.988-1.247-3.477-1.868-6.219-1.868-8.215 0-0.668 0.028-1.328 0.086-1.992-1.613 1.824-2.41 4.269-2.414 7.312 0 1.153 0.164 3.028 0.477 5.598 0.336 2.578 0.496 4.504 0.496 5.777 0 1.157-0.078 2.207-0.25 3.149-1.68-1.492-2.656-3.653-2.918-6.473-0.387-3.433-1.121-6.066-2.215-7.898v1.41c0 1.441-0.676 4.047-1.996 7.808-1.398 3.993-2.172 7.204-2.344 9.629-0.988-2.152-1.48-5.527-1.472-10.136l0.039-37.778c0.011-9.418 3.953-14.121 11.879-14.113l20.425 0.023c8.254 8e-3 12.379 4.719 12.368 14.141z" fill="#ed1c24"/>
  </g>
  <g clip-path="url(#clipPath1541)">
   <path d="m221.11 47.789 17.414 0.02-7e-3 7.035z" fill="#28aae1"/>
  </g>
  <g clip-path="url(#clipPath1555)">
   <path d="m238.52 54.844-17.414-0.02 7e-3 -7.035z" fill="#28aae1"/>
  </g>
  <g clip-path="url(#clipPath1569)">
   <path d="m456.46 94.109c0.055 0.137 0.055 0.258-4e-3 0.375-0.035 0.133-0.129 0.25-0.269 0.375-0.149 0.118-0.348 0.239-0.629 0.344-0.27 0.113-0.637 0.235-1.063 0.363-0.461 0.118-0.84 0.196-1.129 0.258-0.304 0.035-0.547 0.043-0.73 0.031-0.195-0.031-0.344-0.097-0.442-0.167-0.089-0.086-0.164-0.196-0.207-0.333l-4.117-14.765c-0.285-1.035-0.64-1.945-1.047-2.735-0.429-0.808-0.906-1.453-1.484-1.957-0.559-0.5-1.203-0.824-1.898-0.976-0.708-0.16-1.473-0.129-2.29 0.109-1.027 0.289-1.957 0.965-2.765 2.059-0.817 1.078-1.633 2.551-2.442 4.433l4.735 16.985c0.043 0.144 0.031 0.277 0 0.402-0.043 0.113-0.153 0.223-0.309 0.344-0.152 0.129-0.367 0.234-0.633 0.355-0.277 0.125-0.648 0.239-1.078 0.364-0.406 0.105-0.765 0.187-1.058 0.242-0.321 0.043-0.578 0.062-0.758 0.035-0.188-0.035-0.336-0.082-0.426-0.172-0.098-0.062-0.156-0.18-0.184-0.328l-4.128-14.781c-0.282-1.028-0.649-1.922-1.082-2.703-0.438-0.809-0.942-1.45-1.5-1.946-0.567-0.511-1.2-0.832-1.887-0.984-0.703-0.18-1.461-0.125-2.285 0.098-1.024 0.289-1.953 0.98-2.778 2.058-0.832 1.09-1.629 2.555-2.433 4.426l4.742 17c0.031 0.144 0.031 0.27-0.012 0.394-0.051 0.114-0.14 0.227-0.273 0.348-0.153 0.117-0.36 0.238-0.637 0.344-0.281 0.113-0.641 0.242-1.086 0.355-0.422 0.133-0.801 0.207-1.101 0.262-0.282 0.047-0.543 0.059-0.727 0.035-0.191-0.027-0.336-0.094-0.422-0.168-0.105-0.086-0.152-0.207-0.195-0.332l-6.778-24.293c-0.043-0.156-0.043-0.293-0.023-0.406 0.023-0.105 0.117-0.227 0.242-0.355 0.145-0.125 0.34-0.243 0.59-0.336 0.238-0.098 0.57-0.211 0.988-0.317 0.387-0.117 0.711-0.191 0.989-0.23 0.269-0.059 0.48-0.059 0.656-0.016 0.164 0.035 0.297 0.102 0.387 0.192 0.085 0.078 0.148 0.191 0.203 0.328l0.886 3.218c0.942-1.918 1.95-3.406 3.047-4.476 1.086-1.055 2.285-1.785 3.598-2.153 1.016-0.277 1.949-0.41 2.812-0.406 0.875 0.02 1.665 0.141 2.395 0.406 0.73 0.247 1.387 0.606 1.98 1.071 0.602 0.457 1.145 1.012 1.629 1.652 0.575-1.105 1.129-2.07 1.688-2.883 0.558-0.812 1.125-1.507 1.703-2.074 0.574-0.57 1.152-1.019 1.738-1.367 0.586-0.359 1.207-0.613 1.848-0.805 1.57-0.429 2.965-0.523 4.176-0.269 1.218 0.246 2.289 0.746 3.195 1.476 0.918 0.739 1.68 1.688 2.305 2.836 0.629 1.156 1.125 2.43 1.504 3.789z" fill="#2e3092"/>
  </g>
  <g clip-path="url(#clipPath1583)">
   <path d="m475.4 76.898-3.813 1.063c-1.227 0.34-2.254 0.73-3.098 1.199-0.843 0.453-1.507 0.969-1.996 1.543-0.465 0.567-0.765 1.195-0.886 1.828-0.125 0.645-0.082 1.344 0.121 2.078 0.343 1.254 1.035 2.149 2.039 2.668 1.023 0.516 2.23 0.59 3.676 0.176 1.167-0.316 2.175-0.91 3.007-1.789 0.828-0.875 1.629-2.066 2.379-3.605zm7.511 9.868c0.067 0.211 0.039 0.402-0.066 0.546-0.133 0.153-0.301 0.29-0.535 0.407-0.235 0.14-0.59 0.265-1.082 0.394-0.469 0.133-0.852 0.211-1.141 0.227-0.297 0.035-0.516 0-0.691-0.067-0.149-0.074-0.25-0.218-0.317-0.449l-0.664-2.422c-0.75 1.438-1.695 2.649-2.82 3.641-1.137 0.988-2.422 1.699-3.883 2.102-1.281 0.359-2.48 0.5-3.617 0.464-1.117-0.054-2.141-0.277-3.043-0.703-0.91-0.433-1.688-1.047-2.348-1.847-0.66-0.805-1.152-1.801-1.484-2.973-0.383-1.367-0.426-2.633-0.153-3.789 0.282-1.172 0.84-2.223 1.715-3.192 0.848-0.949 1.989-1.82 3.414-2.566 1.403-0.754 3.063-1.394 4.957-1.918l3.352-0.933-0.527-1.895c-0.254-0.941-0.594-1.734-0.993-2.406-0.39-0.653-0.882-1.172-1.457-1.516-0.574-0.355-1.246-0.562-2.003-0.609-0.797-0.039-1.68 0.074-2.708 0.359-1.101 0.305-2.042 0.715-2.835 1.219-0.813 0.5-1.508 1-2.063 1.5-0.586 0.492-1.039 0.945-1.422 1.324-0.351 0.387-0.652 0.606-0.871 0.668-0.148 0.043-0.273 0.031-0.41 0-0.121-0.047-0.262-0.129-0.371-0.25-0.117-0.121-0.238-0.289-0.32-0.5-0.102-0.227-0.2-0.465-0.262-0.734-0.133-0.45-0.192-0.805-0.203-1.09-0.02-0.278 0.07-0.57 0.25-0.871 0.175-0.301 0.519-0.688 1.015-1.18 0.516-0.469 1.102-0.953 1.817-1.43 0.707-0.476 1.492-0.929 2.359-1.355 0.867-0.43 1.774-0.77 2.715-1.035 1.742-0.485 3.273-0.699 4.625-0.649 1.324 0.055 2.484 0.356 3.445 0.918 0.973 0.555 1.785 1.356 2.453 2.387 0.649 1.047 1.192 2.316 1.61 3.824z" fill="#2e3092"/>
  </g>
  <g clip-path="url(#clipPath1597)">
   <path d="m508.87 78.945c0.192 0.207 0.328 0.418 0.375 0.578 0.047 0.172 0 0.336-0.133 0.493-0.148 0.156-0.382 0.304-0.73 0.437-0.328 0.149-0.77 0.309-1.332 0.461-0.543 0.141-1 0.258-1.301 0.313-0.324 0.058-0.586 0.085-0.797 0.07-0.203-0.012-0.367-0.051-0.492-0.129-0.137-0.063-0.25-0.148-0.355-0.25l-8.516-8.02-3.125 11.25c-0.039 0.161-0.09 0.286-0.16 0.411-0.071 0.148-0.18 0.246-0.367 0.363-0.176 0.121-0.422 0.238-0.704 0.355-0.296 0.102-0.703 0.231-1.191 0.36-0.527 0.152-0.961 0.261-1.316 0.297-0.344 0.054-0.598 0.039-0.785-0.016-0.2-0.074-0.293-0.184-0.329-0.363-0.054-0.172-0.019-0.407 0.067-0.7l4.262-13.968-10.352-9.426c-0.203-0.219-0.332-0.406-0.391-0.582-0.062-0.156-0.011-0.324 0.125-0.492 0.133-0.168 0.356-0.313 0.715-0.442 0.344-0.144 0.809-0.289 1.371-0.445 0.516-0.148 0.949-0.246 1.278-0.309 0.308-0.07 0.566-0.089 0.769-0.089 0.192 0.011 0.344 0.039 0.465 0.109 0.117 0.055 0.242 0.148 0.332 0.25l8.059 7.504 3.093-10.617c0.059-0.125 0.098-0.25 0.168-0.36 0.067-0.121 0.149-0.222 0.297-0.332 0.145-0.101 0.34-0.218 0.606-0.316 0.281-0.106 0.652-0.223 1.144-0.356 0.504-0.148 0.945-0.25 1.281-0.308 0.348-0.055 0.618-0.059 0.813-4e-3 0.191 0.055 0.297 0.172 0.32 0.355 0.039 0.192 0.012 0.442-0.074 0.762l-3.953 13.262z" fill="#2e3092"/>
  </g>
  <g clip-path="url(#clipPath1611)">
   <path d="m12.965 104.22 0.019-17.531 2.313 3e-3 -0.012 8.633 7.141-8.625 2.488 8e-3 -6.883 8.348 8.067 9.179-3.164-4e-3 -7.645-8.871-0.012 8.864z" fill="#2e3092"/>
  </g>
  <g clip-path="url(#clipPath1625)">
   <path d="m33.641 104.24 0.019-17.531 2.473 4e-3 -0.02 17.531z" fill="#2e3092"/>
  </g>
  <g clip-path="url(#clipPath1639)">
   <path d="m45.461 104.26 0.019-17.531h2.332l-0.011 8.632 7.117-8.625 2.496 8e-3 -6.883 8.352 8.071 9.176-3.164-4e-3 -7.637-8.871-8e-3 8.863z" fill="#2e3092"/>
  </g>
  <g clip-path="url(#clipPath1653)">
   <path d="m66.141 104.28 0.019-17.531h2.461l-0.019 17.531z" fill="#2e3092"/>
  </g>
  <g clip-path="url(#clipPath1667)">
   <path d="m77.961 104.3 0.019-17.531 2.446 7e-3 8.812 13.5 0.016-13.496h2.137l-0.016 17.532h-2.43l-8.828-13.551-0.015 13.539z" fill="#2e3092"/>
  </g>
  <g clip-path="url(#clipPath1681)">
   <path d="m103.22 102.45 3.183 4e-3c1.656 0 2.801-0.187 3.406-0.586 0.629-0.371 1.09-0.769 1.411-1.187 0.312-0.391 0.648-1.035 1.015-1.914s0.547-2.008 0.547-3.383c0-1.195-0.195-2.305-0.601-3.344-0.403-1.019-1.055-1.84-1.938-2.457-0.887-0.613-2.539-0.91-4.973-0.914l-2.035-4e-3zm-2.504 1.867 0.019-17.531 5.828 8e-3c2.254 4e-3 3.969 0.328 5.114 0.973 1.14 0.629 2.054 1.593 2.707 2.855 0.691 1.274 1.023 2.781 1.023 4.516 0 1.703-0.32 3.242-0.906 4.625-0.602 1.375-1.531 2.484-2.762 3.324-1.242 0.82-2.949 1.238-5.148 1.238z" fill="#2e3092"/>
  </g>
  <g clip-path="url(#clipPath1695)">
   <path d="m126.67 97.621 5.969 4e-3 -3.004-7.539zm-4.996 6.723 6.973-17.524h2.449l6.836 17.539-2.688-4e-3 -1.914-4.855-7.414-0.012-1.922 4.856z" fill="#2e3092"/>
  </g>
  <g clip-path="url(#clipPath1709)">
   <path d="m38.18 42.852c-0.75 0.086-1.336 0.168-1.668 0.168-0.324 0-0.742-0.082-1.16-0.25-0.739-0.5-1.571-0.997-2.489-1.418-1.078-0.579-1.824-0.832-2.406-0.832-0.414 0-0.828 0.668-1.16 2.074-0.34 1.164-0.5 2.074-0.5 2.734 0 0.504 0.566 0.836 1.824 1.004 0.414 0 0.988 0 1.824 0.09 1.239 1.824 1.993 2.824 2.231 3.07 0.75 0.578 1.504 0.836 2.332 0.668 0.578-0.086 1.07-0.91 1.664-2.406 0.578-1.496 0.836-2.566 0.836-3.324 0-1.164-0.418-1.657-1.328-1.578m10.238-27.641c-0.504 0-1.328 0.168-2.484 0.582-1.086 0.41-1.914 0.574-2.329 0.574-0.171-0.578-0.335-0.992-0.574-1.246-1.418-1.828-3.746-2.746-7.152-2.75-1.231 0-3.238 0.91-5.977 2.82-1.246 0.911-2.406 1.325-3.32 1.325-0.586 0-1.078-0.172-1.672-0.582-1.398-0.918-2.156-1.418-2.316-1.418-0.41 0-1.574 0.332-1.821 0.332-1.253 0-3.996-0.84-4.66-0.84-1.574-4e-3 -3.562 2.246-3.562 3.816-4e-3 0.918 1.066 2.086 3.144 3.582 2.153 1.492 3.653 2.239 4.567 2.239 1.242 3e-3 4.148-0.817 5.234-0.817 0.91 0 2.16 1.496 3.641 4.484 0.508 1 1.168 2.489 1.996 4.571 0.246-2.406 0.496-4.071 0.75-5.153 0.75-3.484 1.508-5.304 2.414-5.386 0.25-0.09 0.574 0.328 0.996 1.164 0.41 0.742 0.746 1.156 1.078 1.156 1.914 4e-3 4.488-0.816 7.723-2.562 0.918 0.078 1.742 0.582 2.66 1.418l2.324 2.984c0-0.328 0.328-2.145 1.082-5.391 0.336-1.574 0.5-2.57 0.414-3.07-0.164-1.246-0.91-1.828-2.156-1.832m3.144 14.703-0.832 0.824-17.109-0.019c-0.09 0.086-0.332 1-0.906 2.91-0.258 0.914-0.594 1.574-0.922 1.832-0.828-1-1.832-2.418-2.981-4.242-0.257 0.996-0.339 2.156-0.339 3.488-4e-3 1.078 0.332 3.57 0.328 4.566 0.246-0.585 0.91-0.828 1.828-0.824 1.652 0 2.894 0.242 3.648 0.75l2.235 1.996c0.25 0.078 0.504-0.086 0.918-0.418l0.586-0.582c0.25 4e-3 1.402 0.504 1.82 0.504 0.254 0.574 0.418 2.324 0.492 5.067l0.332 8.218-11.551-0.011-0.492 1.078-0.027 22.918-16.778-0.02 0.059-57.215c-0.734-0.414-1.078-1.242-1.074-2.664 0-1.148 0.758-2.484 2.246-3.976 0.582-0.582 1.586-1.41 2.91-2.321 1.746 0.332 3.57 0.657 5.32 1 2.567 0.586 4.231 1.165 4.805 1.747 0.75 0 2.91-0.821 6.484-2.481 1.747-0.824 2.993-1.242 3.661-1.242l3.902 1.086c0.652 0.25 1.242 0.336 1.652 0.336 0.25 0 0.5 0 0.668-0.086 0.332 1.582 0.993 2.406 1.989 2.406 0.418 0 1.25-0.16 2.496-0.496 1.57-0.41 2.488-0.582 2.656-0.656 1.66 0 3.156 1.828 2.738 3.492z" fill="#28aae1"/>
  </g>
  <g clip-path="url(#clipPath1723)">
   <path d="m77.879 40.32c-1.246-0.664-1.91-0.996-2.152-0.996-1 0-1.497 1.492-1.5 4.563v0.832c0.074 0 0.324-0.332 0.832-0.992 0.57-0.665 1.074-0.915 1.57-0.832 0.328 0.085 0.668 0.335 1 0.753 0.086 0.082 0.246 0.321 0.41 0.743 0.086-0.993 0.344-2.239 0.84-3.649-0.164 0-0.496-0.172-1-0.422m3.086-10.043c-0.16 0.34-0.414 0.75-0.746 1.325-0.586 0.914-1.246 1.332-1.828 1.332-0.254 0-0.914-0.579-2.079-1.664-1.082-1.082-2.16-1.579-3.167-1.504l-8e-3 9.218c0.425-0.906 1.172-1.488 2.425-1.656 2.899 0.918 4.559 1.414 5.063 1.332 0.914-0.156 1.332-0.988 1.332-2.574v-1.242c0.168-1.989-0.168-3.489-0.992-4.567m-16.266-10.148 4e-3 -1.414c0.328 0.086 0.578 0.168 0.742 0.25 0.504 0.254 0.668 0.426 0.582 0.586-0.328 0.168-0.746 0.332-1.328 0.578m29.309 2.773c-0.414-2.41-0.914-3.906-1.492-4.492-0.993 0.25-2.071-0.66-3.321-2.656-1.238-1.988-2.23-2.988-3.058-2.992-1 0-2.078 1-3.239 3.07-1.183 2.066-2.171 3.07-3.007 3.066-0.414 0-1.153-0.828-2.145-2.57-0.922-1.754-1.66-2.664-2.156-2.746-1.082-0.168-2.492 0.41-4.328 1.738-1.742 1.242-2.91 1.899-3.403 1.899-0.168 0-1.004-0.66-2.488-2.074-1.492-1.407-2.578-2.079-3.312-2.079-1.258-4e-3 -2.168 0.496-2.758 1.489-0.071 0.082-0.574 1.5-1.664 4.32 3.078 3.074 4.648 6.145 4.644 9.223 0 1.078 0 1.324-0.242 1.656h0.484c3.997-5.473 6.489-8.207 7.489-8.207 0.914 0 2.074 1 3.566 2.996 0.578 0.742 1.918 2.652 4.152 5.73 0.411-1.656 0.829-3.074 1.25-4.234 1.079-3.152 2.079-4.641 2.825-4.48 0.664 0.164 1.328 0.836 2.082 1.992 0.16 0.246 0.824 1.496 1.894 3.746 0.25-0.09 0.59-0.582 1.168-1.66 0.582-1.082 1.164-1.664 1.742-1.746 1.164-0.168 2.153 0.75 3.075 2.656l2.48 7.484c0.082-0.496 0.242-1.656 0.496-3.574 0.094-0.668 0.176-1.824 0.43-3.484-0.332-0.422-0.754-1.746-1.164-4.071m2.976 13.203c0 2.571-0.336 4.399-0.922 5.571-0.91 1.742-2.906 3.476-5.902 5.222 2.406 1.332 3.988 3.661 4.731 7.067 0.414 1.984 0.66 4.973 0.734 9.047l0.16 10.961c-4e-3 2.742-2.34 4.066-5.324 4.062l-9.293-0.097c-0.758 0-1.25-0.239-1.582-0.833l0.105-24.078c-1.41-0.086-3.648-0.168-6.57-0.336l-0.488 0.825-0.024 24.5-16.023-0.02 0.062-60.125c0-1.234 0.575-2.648 1.829-4.226 1.246-1.665 2.414-2.485 3.582-2.481 1.574 0 2.816 0.66 3.726 2.078 0.996 1.403 1.653 2.074 2.074 2.156 1.907-0.996 4.489-2.148 7.895-3.398 0.746-0.16 1.742 0.836 3.07 3 0.656 1.078 1.238 1.574 1.653 1.574 0.343 0 1.332-1.242 2.992-3.812 0.836-1.254 1.75-1.914 2.668-1.91 0.996-0.079 2.074 0.836 3.316 2.914 1.242 1.988 2.492 2.984 3.735 2.988 0.734 1.574 1.406 3.328 1.82 5.398 0.078 0.496 0.242 1.41 0.488 2.739 1 2.746 1.496 5.742 1.492 8.968z" fill="#28aae1"/>
  </g>
  <g clip-path="url(#clipPath1737)">
   <path d="m109.71 17.605c0.242-0.339 0.656-0.578 1.242-0.664 1.008 4e-3 1.82 0.418 2.578 1.325v0.339c-1.492 0-2.754-0.343-3.82-1m4.152-5.394c-0.914 0-3.316 0.578-4.312 0.578-0.332 0-0.918-0.164-1.668-0.586l0.836 1.906c-0.996 0.422-1.668 0.582-1.992 0.5-0.418 0-0.672-0.25-0.672-0.66l0.168-1.164c-1.567 0.66-2.325 2.074-2.328 4.313 0 0.746 0.414 3.16 1.324 7.144 0.746 0.414 1.164 1.328 1.328 2.906-4e-3 0.582-0.254 2.239-0.844 4.989 0 1.16 0.582 2.156 1.832 3.066 0.41-0.578 0.656-1.492 0.66-2.898 0-1.246-0.074-2.418-0.16-3.493 4e-3 -1.246 0.5-2.41 1.5-3.57 0.66 0 1.317 0.496 1.988 1.5 0.586 1.242 1.239 2.406 1.832 3.57 2.411-3.406 3.661-8.624 3.665-15.695-0.329-1.57-1.407-2.406-3.157-2.406m3.59 65.855-15.113-0.015-0.02-59.797c0-1.406 0.418-2.899 1.157-4.473 0.929-1.828 2-2.734 3.253-2.734l1.989 0.332c1.078 4e-3 4.062-0.5 5.148-0.496 1.66 0 2.906 0.914 3.735 2.746z" fill="#28aae1"/>
  </g>
  <g clip-path="url(#clipPath1751)">
   <path d="m162.84 41.492c-0.344-0.246-0.758-0.41-1.336-0.41-0.422 0-1.41 0.324-2.899 1.07-0.839 0.41-1.496 0.578-1.992 0.578-0.332 0-0.582 0-0.754-0.078-0.504-0.09-1.332-0.336-2.484-0.836-1.168-0.582-2.07-0.832-2.746-0.836-1.914 0-3.66 2.493-3.914 4.477 0 0.586 0.168 1.59 0.594 2.992 0.41 1.586 0.812 2.414 1.148 2.5 0.508 0.164 0.91-0.082 1.242-0.668 0.922-1.496 1.598-2.246 2.086-2.246 0.992 4e-3 1.836 0.754 2.488 2.25 0.247 0.668 0.915 3.488 1.895 8.559 1.332-6.227 2.586-9.297 3.836-9.297 0.738 4e-3 1.41 0.414 2.16 1.168 0.5 0.75 0.984 1.406 1.488 2.074 0.914 0.246 1.668-1.738 2.243-5.977 0-2.164-0.981-3.902-3.055-5.32m-18.957 12.856c-0.16-1.336-0.235-2.582-0.235-3.739 4e-3 -2.074 0.243-3.652 0.758-4.82 3.059-3.894 4.571-6.305 4.574-7.211 8e-3 -7.648-0.328-11.637-1-11.883-0.406-0.25-1.574 1.493-2.558 1.493-0.598 0-1.43-2.243-2.172-2.243-1.074 0-1.668 1.489-1.668 4.563l-0.039 34.965c-4e-3 1.742 1.746 2.906 3.656 2.906 2.739 4e-3 4.153-2.899 4.16-8.793 0-1.66 4e-3 -2.832-0.078-3.414 0-0.164-0.078-0.41-0.168-0.66zm-4.856-38.207h-0.668l-0.168-0.164c0-0.5 0.258-0.754 0.836-0.836l1.332 0.171v0.333c0 0.335-0.418 0.5-1.332 0.496m19.922 5.668c-0.742-1.911-1.738-3.157-2.89-3.653-1.594-0.59-3.082-1.082-4.575-1.676-1.746-0.906-3.234-1.328-4.57-1.332-0.582 0-2.234 0.75-2.988 0.5-0.664-1.078-0.817-2.16-3.899-2.5-1.078 0-2.5 0.993-4.316 2.903-1.758 1.906-3.16 2.906-4.164 2.906-0.336 0-1.652-0.914-2.32-0.832-1.415 0-2.407 1.574-2.993 4.813-0.168 1.074-0.339 2.652-0.586 4.734-3e-3 2.402 0.161 6.058 0.481 11.035 0.582-1.406 2.254-5.559 4.832-12.281 1.242-3.317 2.582-4.973 3.91-4.973 1.414 0 2.082 1.664 2.078 4.981-4e-3 1.66-4e-3 2.488 0.071 2.574 0.746 0 1.582-0.996 2.41-2.906 0.918-1.989 1.664-2.981 2.328-2.981 1.172 0 1.996 0.66 2.57 1.91 0.582 1.246 0.836 1.821 0.914 1.821 0.422 0.086 0.836-0.493 1.328-1.739 0.766-1.742 1.25-2.988 1.672-3.566 0.91-1.328 1.996-1.988 3.238-1.988 1.997 3e-3 3.239 1.742 3.739 5.316 0.156 1.332 0.828 2.574 2.058 3.824 1.25 1.16 1.911 2.082 2.078 2.66 0.586-1.66 0.836-3.242 0.836-4.82 0-1.242-0.418-2.816-1.242-4.73m7.11 30.39c-0.172 0.59-0.497 1.586-1 3l-0.024 21.59c-0.574 0.578-1.57 0.91-2.992 0.906-0.66 0-1.41-0.078-2.231-0.246-0.585-1.414-1.085-2.32-1.332-2.746-0.664-1.082-1.406-1.656-2.152-1.824-3.496 3.484-7.902 5.219-13.137 5.211-12.703-0.012-19.089-7.078-19.074-21.113l8e-3 -6.637v-2.91c0.086-1.414 0.086-2.328 0.09-2.735 0.094-3.906-0.16-6.73-0.735-8.64l1.348-14.035c4e-3 -3.743 2.652-5.641 8.051-5.633h0.836c0 0.078 0 0.078 0.078 0.078l2.746-3.235c1.414-1.41 2.492-2.148 3.332-2.148 0.988 0 1.899 0.578 2.824 1.742 0.903 1.082 1.645 1.66 2.231 1.66 1.824-0.656 3.324-0.992 4.402-0.988 0.918 0 1.82 0.336 2.738 0.996 2.161 1.5 3.571 2.25 4.325 2.254 0.402 0 0.652 0 0.824-0.09 5.543 6.489 8.375 12.879 8.367 19.114 0 1.07-0.09 1.906-0.336 2.656l-15.449 0.148c0 0.578 0.754 1.078 2.336 1.574 1.32 0.418 2.308 0.676 3.066 0.676 0.41 0 1.653-0.168 3.731-0.582 1.82-0.332 2.988-0.414 3.402-0.328 1.254 0.418 2.41 1.418 3.316 2.996 0.922 1.574 1.422 3.07 1.418 4.481 0 1-0.336 2.578-1.007 4.808" fill="#28aae1"/>
  </g>
  <g clip-path="url(#clipPath1765)">
   <path d="m201.56 19.117c-0.332 0.664-0.825 0.996-1.41 0.996l-0.333-0.168c-0.253-0.078-0.585-0.25-0.906-0.586l-0.746-1.828h0.324c0.25 0.414 0.746 0.824 1.489 1.332l1.828-0.832zm-10.012 44.328c-0.422 0.082-0.762 0.918-1.086 2.414-0.242 1.246-0.422 2.161-0.422 2.825 0 0.742 0.082 1.402 0.332 1.902 0.168-0.078 0.332-0.078 0.59-0.078 0.816 0 1.652 0.578 2.488 1.824 0.325 0.504 0.743 1.328 1.239 2.414 0.254-1.258 0.582-3.074 1-5.476 0.086-2.243-1.243-4.243-4.141-5.825m5.098-34.027c4e-3 -1.344-0.325-2-1.071-2-0.09 0-0.414 0.328-0.929 1.078-0.485 0.742-0.903 1.07-1.321 1.07-0.246 0.086-0.5-0.332-0.664-1.16-0.164-0.918-0.332-1.418-0.582-1.504-0.992-0.328-1.996 1.418-1.996 2.508l-0.035 32.539c0.336-0.328 0.832-0.578 1.504-0.66 0.406 0 2.07 1.332 5.055 4.074zm-15.688-6.918c-0.25 0-0.57-0.176-0.828-0.422l-0.918-0.75 0.172-0.566c0.746 0 2.152 0.906 2.152 1.566-0.156 0.086-0.324 0.172-0.578 0.172m28.399 3.27c-0.332-1.082-0.407-1.747-0.332-2.082-0.829-0.415-1.399-1.743-1.821-3.899-0.41-2.742-0.66-4.152-0.742-4.32-0.25-0.586-1.25-1.332-2.98-2.078-1.754-0.84-2.911-1.258-3.657-1.258-0.754 0.836-1.422 1.664-2.168 2.496-1.074 1.242-1.828 1.902-2.242 1.902-0.086 0-1.238-1.992-2.656-1.992-0.414 0-1.242 0.66-2.664 1.91-1.332 1.242-2.238 1.813-2.746 1.895-0.735-1.321-1.649-1.989-2.817-1.992-0.414 0-1.242 0.253-2.644 0.753-1.34 0.493-2.246 0.739-2.824 0.739l-1-0.332c-0.59 0.168-1.336 0.738-2.411 1.824-1.003 1.078-1.507 1.824-1.507 2.324-0.164 0.742 0.086 1.988 0.754 3.567 0.66 1.585 1.402 2.5 2.152 2.664 0.25 0.082 0.832-0.25 1.914-1 1.078-0.743 1.738-1.153 2.074-1.243 0.75 0 1.324 0.34 1.742 0.918 0.578-0.168 1.414-0.992 2.418-2.402 1.078-1.414 1.907-2.16 2.489-2.16 0.668 0 1.656 0.504 2.984 1.508 1.328 0.992 2.242 1.484 2.742 1.488 0.578 0 1.074-0.66 1.328-2.07s0.75-2.153 1.324-2.149c1.586 0 3.161 1.235 4.571 3.645 0.582 0.918 1.41 2.418 2.488 4.328 0.574-2.496 1.332-3.742 2.246-3.742 0.746 0 2.242 5.324 4.633 15.875l-0.324-9.637c0.504-0.41 0.754-1.082 0.754-1.816-0.086-0.508-0.5-1.758-1.078-3.664m4.457 24.082c-0.012 11.878-2.106 19.847-6.336 23.918-2.989 2.902-8.059 4.382-15.121 4.375-13.622-0.012-20.422-8.493-20.403-25.438 4e-3 -5.719 0.102-9.371 0.344-10.871 4e-3 -5.731 0.766-10.043 2.18-13.113 0-0.504-0.25-1.582-0.743-3.243-0.5-1.668-0.742-2.824-0.742-3.492 0-1.234 0.668-2.652 2.082-4.07 1.403-1.484 2.735-2.234 3.992-2.23 0.575 0.25 0.989 0.335 1.329 0.335 1.238-1.25 2.648-1.835 4.234-1.832 1.734 4e-3 2.641 2.004 2.723 2.004 0.593 0.082 1.5-0.496 2.746-1.574 1.254-1.078 2.086-1.66 2.328-1.582 0.582 0.094 2.234 1.008 2.324 1.008 0.504 0 1.5-0.5 2.988-1.5 1.586-0.992 2.496-1.492 2.914-1.57 1.414 0 2.829 0.421 4.403 1.335 1.566 0.911 2.488 1.993 2.816 3.243 0.082 0.082 0.985 3.234 2.731 9.629 1.238 4.656 1.98 7.476 2.316 8.48 0.574 5.727 0.902 11.129 0.895 16.188" fill="#28aae1"/>
  </g>
  <g clip-path="url(#clipPath1779)">
   <path d="m281.23 26.754-9.793-0.012-0.043 36.461c-0.207-2.437-0.356-3.836-0.469-4.234-0.262-1.77-0.731-3.375-1.438-4.813v1.571c-4e-3 1.441-0.484 4.218-1.453 8.308-0.969 4.094-1.465 7.449-1.465 10.055-4e-3 1.437 0.102 2.812 0.325 4.144l-3.907-4e-3c1.719-3.703 2.586-6.886 2.59-9.55 4e-3 -1.657-0.535-3.992-1.558-7.016-1.071-3.019-1.586-5.773-1.586-8.262 4e-3 -1.34 0.121-2.742 0.343-4.242-2.445 2.824-3.734 5.895-3.875 9.219-0.144 3.324-0.976 5.922-2.539 7.809-0.996-1.5-1.488-3.333-1.484-5.485 0-1.504 0.32-3.812 0.961-6.937 0.629-3.121 0.953-5.383 0.953-6.77 4e-3 -2.543-0.789-4.512-2.387-5.898 0.219 1.281 0.317 2.433 0.317 3.488-4e-3 2.656-0.907 5.426-2.754 8.301l0.027-26.164-9.867-8e-3 0.016-14.945 39.101 0.042z" fill="#ed1c24"/>
  </g>
  <g clip-path="url(#clipPath1793)">
   <path d="m319.04 78.293-3.898-4e-3c0.281-1.223 0.41-2.488 0.414-3.809 3e-3 -2.554-0.567-5.625-1.735-9.23-1.433-4.484-2.23-7.121-2.398-7.891l7.64 8e-3zm-30.961-12.07c-0.176 0-0.25-0.086-0.246-0.254l0.016-16.778c0.05 0.664 0.406 2.567 1.062 5.731 0.445 2.383 0.672 4.297 0.672 5.738-4e-3 2.215-0.5 4.063-1.504 5.563m30.027-39.426-10.804-0.012-8e-3 9.387 8.641 0.012-0.016 15.281-8.645-0.012-4e-3 5.902 2.747 4e-3c-0.118 0.223-0.477 2.18-1.086 5.887-0.332 2.219-1.309 3.938-2.922 5.145-0.117-0.77-0.164-1.657-0.164-2.649 0-1.324 0.211-3.324 0.59-5.98 0.378-2.668 0.593-4.602 0.593-5.817 4e-3 -2.937-0.785-5.234-2.32-6.898v1.828c-4e-3 1.937-0.621 4.625-1.875 8.059-1.266 3.429-1.914 6.031-1.961 7.8-0.723-0.441-1.332-1.941-1.828-4.488-0.055-0.266-0.442-2.797-1.149-7.547-0.453 1.871-0.918 3.781-1.421 5.723-0.344 1.164-0.922 2.269-1.762 3.32 0.238-3.101-0.535-6.086-2.313-8.93-1.761-2.859-2.64-5.531-2.64-8.027 4e-3 -1.105 0.113-2.312 0.343-3.652-1.23 1.226-1.98 2.601-2.25 4.156l0.036-33.469 30.234 0.035z" fill="#ed1c24"/>
  </g>
  <g clip-path="url(#clipPath1807)">
   <path d="m369.72 64.809c-0.164 0.332-0.469 0.836-0.914 1.5-0.719-1.504-1.071-3.379-1.071-5.653 4e-3 -1.277 0.364-4.402 1.086-9.383 0.614 3.043 0.907 6.43 0.903 10.137zm-19.649-28.344 0.012-9.637-4.898-4e-3 -0.012 9.637zm19.688-8.781c-8e-3 8.195-2.707 13.261-8.078 15.195 2.386 0.668 4.277 2.238 5.652 4.734-0.172 1.164-0.926 3.211-2.25 6.149-1 2.375-1.418 5.062-1.254 8.054-0.711-1.054-1.211-2.16-1.488-3.324-0.336-1.937-0.637-3.851-0.914-5.726-0.328 2.539-0.656 5.078-1 7.636-0.336 2.547-0.754 4.008-1.246 4.395-0.067-1.77-0.637-4.707-1.742-8.805-0.997-3.605-1.399-6.558-1.227-8.89-1.121 1.613-1.672 3.824-1.676 6.648 0 1.219 0.141 3.172 0.457 5.848 0.305 2.691 0.449 4.699 0.449 6.031-3e-3 1.051-0.066 1.996-0.171 2.812l-0.258-0.156c-0.047-1.441-0.489-3.687-1.321-6.73-0.769-2.883-1.152-5.535-1.152-7.973 4e-3 -1.387 0.094-2.824 0.254-4.324-1.504 2.273-2.402 4.652-2.746 7.133l8e-3 -5.387h-2.164c0.234-1.77 0.347-3.156 0.347-4.156 4e-3 -2.434-0.609-4.313-1.832-5.653 0.387 4.157 0.051 7.426-1 9.805h-0.25v0.996c-1.605 3.258-2.359 6.524-2.254 9.797-0.722-1.055-1.218-2.16-1.488-3.324-0.281-1.938-0.586-3.852-0.914-5.727-0.328 2.539-0.66 5.078-1.004 7.637-0.336 2.547-0.746 4.008-1.25 4.398-0.043-1.773-0.547-4.398-1.488-7.894-0.883-3.321-1.309-5.949-1.309-7.883 0-0.672 0.051-1.309 0.16-1.918-1.281 1.719-1.902 4.043-1.902 6.977-4e-3 1.214 0.117 3.129 0.398 5.73 0.274 2.598 0.415 4.539 0.411 5.82 0 1.047-0.071 1.993-0.172 2.809-1.332-1.488-2.102-3.648-2.321-6.469-0.277-3.437-0.832-6.008-1.656-7.722 0.215 1.652-0.199 4.593-1.25 8.796-1.219 4.707-1.836 8.415-1.84 11.133 0 1.442 0.133 2.813 0.407 4.145l-1.985-4e-3 0.071-66.438 31.472 0.036c8.36 0.011 12.531 5.269 12.52 15.789" fill="#ed1c24"/>
  </g>
  <g clip-path="url(#clipPath1821)">
   <path d="m436.15 64.637c-0.05 0-0.113 0.031-0.183 0.121-0.102 0.09-0.192 0.121-0.301 0.121-0.062-1.828-0.699-4.488-1.906-7.977-1.219-3.488-1.824-6.23-1.824-8.226 4e-3 -0.496 4e-3 -0.992 4e-3 -1.492-1.434 1.609-2.165 3.851-2.168 6.722 0 1.168 0.171 3.055 0.5 5.645 0.328 2.605 0.488 4.543 0.488 5.824 0 1.156-0.086 2.215-0.254 3.145-1.633-1.426-2.617-3.594-2.942-6.469-0.363-3.336-1.156-5.903-2.355-7.723v1.399c0 1.449-0.715 4.269-2.129 8.476-1.422 4.203-2.121 7.633-2.125 10.301 0 1.32 0.141 2.629 0.406 3.894h-2.656l0.027-26.574-9.652 21.164c-0.16-2.375-0.773-5.531-1.828-9.472-0.984-3.707-1.48-6.317-1.48-7.809 0-0.492 0-0.965 3e-3 -1.402-0.906 1.769-1.507 4.34-1.769 7.722-0.266 2.871-1.043 5.039-2.332 6.461-0.149-0.988-0.238-2.07-0.238-3.222 4e-3 -1.332 0.144-3.274 0.425-5.821 0.286-2.547 0.426-4.402 0.426-5.566 4e-3 -2.875-0.605-5.117-1.82-6.731 0.207 2.106-0.035 4.547-0.762 7.309-0.66 2.332-1.301 4.648-1.906 6.981l-2.25-5.243c-0.047-0.707-0.211-1.851-0.488-3.394 0 0.215-0.039 0.535-0.133 0.945-0.071 0.414-0.121 0.766-0.121 1.035l-1.243-2.984-7e-3 8.387c-0.215 0.339-0.614 0.878-1.157 1.66 0.219-3.102-0.336-6.004-1.656-8.727-1.437-2.933-2.148-5.59-2.144-7.972 0-1.161 0.105-2.465 0.332-3.903-1.325 1.383-1.996 3.403-2 6.067 0 1.382 0.238 3.589 0.746 6.64 0.484 3.047 0.73 5.309 0.726 6.813 0 2.218-0.422 4.066-1.25 5.566-1.261-1.89-1.949-4.492-2.023-7.812-0.082-3.325-1.117-6.395-3.113-9.227 0.172 1.449 0.254 2.797 0.254 4.07-4e-3 2.551-0.43 5.344-1.301 8.387-0.86 3.047-1.27 5.402-1.274 7.055 0 2.668 0.676 5.851 2.059 9.558l-5.402-7e-3 0.07-66.438 24.332 0.027 5.449 17.946 5.434-17.934 24.57 0.027z" fill="#ed1c24"/>
  </g>
  <g clip-path="url(#clipPath1835)">
   <path d="m465.64 57.77c-0.157 0.664-0.25 2.16-0.25 4.488-0.934-1.117-1.692-2.606-2.227-4.492zm21.84 5.503c-4e-3 4.493-0.567 7.915-1.676 10.301-1.336 3.047-3.684 4.895-7.063 5.547 1.828-3.809 2.754-7.098 2.758-9.867 0-1.715-0.519-4.09-1.586-7.102-1.031-3.019-1.566-5.699-1.562-8.023 4e-3 -1.434 0.148-2.957 0.422-4.563-2.106 2.262-3.379 4.481-3.817 6.633-0.183 1.668-0.308 3.356-0.433 5.067-0.215 1.945-1.016 3.769-2.407 5.48-1.051-1.605-1.574-3.539-1.57-5.808 0-1.508 0.332-3.786 0.961-6.86 0.637-3.07 0.961-5.293 0.965-6.676 0-2.605-0.856-4.601-2.571-5.988 0.258 1.441 0.407 2.746 0.407 3.902-4e-3 2.379-0.891 4.957-2.657 7.735l0.028-26.59-4.992-8e-3 -0.032 29.07c-0.05-0.5-0.214-1.328-0.488-2.48-0.445 2.539-0.898 5.055-1.34 7.555-0.508 2.644-1.062 4.195-1.668 4.644-0.047-1.832-0.707-4.484-1.929-7.988-1.247-3.477-1.868-6.219-1.868-8.215 0-0.668 0.028-1.328 0.086-1.992-1.613 1.824-2.41 4.269-2.414 7.312 0 1.153 0.164 3.028 0.477 5.598 0.336 2.578 0.496 4.504 0.496 5.777 0 1.157-0.078 2.207-0.25 3.149-1.68-1.492-2.656-3.653-2.918-6.473-0.387-3.433-1.121-6.066-2.215-7.898v1.41c0 1.441-0.676 4.047-1.996 7.808-1.398 3.993-2.172 7.204-2.344 9.629-0.988-2.152-1.48-5.527-1.472-10.136l0.039-37.778c0.011-9.418 3.953-14.121 11.879-14.113l20.425 0.023c8.254 8e-3 12.379 4.719 12.368 14.141z" fill="#ed1c24"/>
  </g>
  <g clip-path="url(#clipPath1849)">
   <path d="m221.11 47.789 17.414 0.02-7e-3 7.035z" fill="#28aae1"/>
  </g>
  <g clip-path="url(#clipPath1863)">
   <path d="m238.52 54.844-17.414-0.02 7e-3 -7.035z" fill="#28aae1"/>
  </g>
  <g clip-path="url(#clipPath1877)">
   <path d="m456.46 94.109c0.055 0.137 0.055 0.258-4e-3 0.375-0.035 0.133-0.129 0.25-0.269 0.375-0.149 0.118-0.348 0.239-0.629 0.344-0.27 0.113-0.637 0.235-1.063 0.363-0.461 0.118-0.84 0.196-1.129 0.258-0.304 0.035-0.547 0.043-0.73 0.031-0.195-0.031-0.344-0.097-0.442-0.167-0.089-0.086-0.164-0.196-0.207-0.333l-4.117-14.765c-0.285-1.035-0.64-1.945-1.047-2.735-0.429-0.808-0.906-1.453-1.484-1.957-0.559-0.5-1.203-0.824-1.898-0.976-0.708-0.16-1.473-0.129-2.29 0.109-1.027 0.289-1.957 0.965-2.765 2.059-0.817 1.078-1.633 2.551-2.442 4.433l4.735 16.985c0.043 0.144 0.031 0.277 0 0.402-0.043 0.113-0.153 0.223-0.309 0.344-0.152 0.129-0.367 0.234-0.633 0.355-0.277 0.125-0.648 0.239-1.078 0.364-0.406 0.105-0.765 0.187-1.058 0.242-0.321 0.043-0.578 0.062-0.758 0.035-0.188-0.035-0.336-0.082-0.426-0.172-0.098-0.062-0.156-0.18-0.184-0.328l-4.128-14.781c-0.282-1.028-0.649-1.922-1.082-2.703-0.438-0.809-0.942-1.45-1.5-1.946-0.567-0.511-1.2-0.832-1.887-0.984-0.703-0.18-1.461-0.125-2.285 0.098-1.024 0.289-1.953 0.98-2.778 2.058-0.832 1.09-1.629 2.555-2.433 4.426l4.742 17c0.031 0.144 0.031 0.27-0.012 0.394-0.051 0.114-0.14 0.227-0.273 0.348-0.153 0.117-0.36 0.238-0.637 0.344-0.281 0.113-0.641 0.242-1.086 0.355-0.422 0.133-0.801 0.207-1.101 0.262-0.282 0.047-0.543 0.059-0.727 0.035-0.191-0.027-0.336-0.094-0.422-0.168-0.105-0.086-0.152-0.207-0.195-0.332l-6.778-24.293c-0.043-0.156-0.043-0.293-0.023-0.406 0.023-0.105 0.117-0.227 0.242-0.355 0.145-0.125 0.34-0.243 0.59-0.336 0.238-0.098 0.57-0.211 0.988-0.317 0.387-0.117 0.711-0.191 0.989-0.23 0.269-0.059 0.48-0.059 0.656-0.016 0.164 0.035 0.297 0.102 0.387 0.192 0.085 0.078 0.148 0.191 0.203 0.328l0.886 3.218c0.942-1.918 1.95-3.406 3.047-4.476 1.086-1.055 2.285-1.785 3.598-2.153 1.016-0.277 1.949-0.41 2.812-0.406 0.875 0.02 1.665 0.141 2.395 0.406 0.73 0.247 1.387 0.606 1.98 1.071 0.602 0.457 1.145 1.012 1.629 1.652 0.575-1.105 1.129-2.07 1.688-2.883 0.558-0.812 1.125-1.507 1.703-2.074 0.574-0.57 1.152-1.019 1.738-1.367 0.586-0.359 1.207-0.613 1.848-0.805 1.57-0.429 2.965-0.523 4.176-0.269 1.218 0.246 2.289 0.746 3.195 1.476 0.918 0.739 1.68 1.688 2.305 2.836 0.629 1.156 1.125 2.43 1.504 3.789z" fill="#2e3092"/>
  </g>
  <g clip-path="url(#clipPath1891)">
   <path d="m475.4 76.898-3.813 1.063c-1.227 0.34-2.254 0.73-3.098 1.199-0.843 0.453-1.507 0.969-1.996 1.543-0.465 0.567-0.765 1.195-0.886 1.828-0.125 0.645-0.082 1.344 0.121 2.078 0.343 1.254 1.035 2.149 2.039 2.668 1.023 0.516 2.23 0.59 3.676 0.176 1.167-0.316 2.175-0.91 3.007-1.789 0.828-0.875 1.629-2.066 2.379-3.605zm7.511 9.868c0.067 0.211 0.039 0.402-0.066 0.546-0.133 0.153-0.301 0.29-0.535 0.407-0.235 0.14-0.59 0.265-1.082 0.394-0.469 0.133-0.852 0.211-1.141 0.227-0.297 0.035-0.516 0-0.691-0.067-0.149-0.074-0.25-0.218-0.317-0.449l-0.664-2.422c-0.75 1.438-1.695 2.649-2.82 3.641-1.137 0.988-2.422 1.699-3.883 2.102-1.281 0.359-2.48 0.5-3.617 0.464-1.117-0.054-2.141-0.277-3.043-0.703-0.91-0.433-1.688-1.047-2.348-1.847-0.66-0.805-1.152-1.801-1.484-2.973-0.383-1.367-0.426-2.633-0.153-3.789 0.282-1.172 0.84-2.223 1.715-3.192 0.848-0.949 1.989-1.82 3.414-2.566 1.403-0.754 3.063-1.394 4.957-1.918l3.352-0.933-0.527-1.895c-0.254-0.941-0.594-1.734-0.993-2.406-0.39-0.653-0.882-1.172-1.457-1.516-0.574-0.355-1.246-0.562-2.003-0.609-0.797-0.039-1.68 0.074-2.708 0.359-1.101 0.305-2.042 0.715-2.835 1.219-0.813 0.5-1.508 1-2.063 1.5-0.586 0.492-1.039 0.945-1.422 1.324-0.351 0.387-0.652 0.606-0.871 0.668-0.148 0.043-0.273 0.031-0.41 0-0.121-0.047-0.262-0.129-0.371-0.25-0.117-0.121-0.238-0.289-0.32-0.5-0.102-0.227-0.2-0.465-0.262-0.734-0.133-0.45-0.192-0.805-0.203-1.09-0.02-0.278 0.07-0.57 0.25-0.871 0.175-0.301 0.519-0.688 1.015-1.18 0.516-0.469 1.102-0.953 1.817-1.43 0.707-0.476 1.492-0.929 2.359-1.355 0.867-0.43 1.774-0.77 2.715-1.035 1.742-0.485 3.273-0.699 4.625-0.649 1.324 0.055 2.484 0.356 3.445 0.918 0.973 0.555 1.785 1.356 2.453 2.387 0.649 1.047 1.192 2.316 1.61 3.824z" fill="#2e3092"/>
  </g>
  <g clip-path="url(#clipPath1905)">
   <path d="m508.87 78.945c0.192 0.207 0.328 0.418 0.375 0.578 0.047 0.172 0 0.336-0.133 0.493-0.148 0.156-0.382 0.304-0.73 0.437-0.328 0.149-0.77 0.309-1.332 0.461-0.543 0.141-1 0.258-1.301 0.313-0.324 0.058-0.586 0.085-0.797 0.07-0.203-0.012-0.367-0.051-0.492-0.129-0.137-0.063-0.25-0.148-0.355-0.25l-8.516-8.02-3.125 11.25c-0.039 0.161-0.09 0.286-0.16 0.411-0.071 0.148-0.18 0.246-0.367 0.363-0.176 0.121-0.422 0.238-0.704 0.355-0.296 0.102-0.703 0.231-1.191 0.36-0.527 0.152-0.961 0.261-1.316 0.297-0.344 0.054-0.598 0.039-0.785-0.016-0.2-0.074-0.293-0.184-0.329-0.363-0.054-0.172-0.019-0.407 0.067-0.7l4.262-13.968-10.352-9.426c-0.203-0.219-0.332-0.406-0.391-0.582-0.062-0.156-0.011-0.324 0.125-0.492 0.133-0.168 0.356-0.313 0.715-0.442 0.344-0.144 0.809-0.289 1.371-0.445 0.516-0.148 0.949-0.246 1.278-0.309 0.308-0.07 0.566-0.089 0.769-0.089 0.192 0.011 0.344 0.039 0.465 0.109 0.117 0.055 0.242 0.148 0.332 0.25l8.059 7.504 3.093-10.617c0.059-0.125 0.098-0.25 0.168-0.36 0.067-0.121 0.149-0.222 0.297-0.332 0.145-0.101 0.34-0.218 0.606-0.316 0.281-0.106 0.652-0.223 1.144-0.356 0.504-0.148 0.945-0.25 1.281-0.308 0.348-0.055 0.618-0.059 0.813-4e-3 0.191 0.055 0.297 0.172 0.32 0.355 0.039 0.192 0.012 0.442-0.074 0.762l-3.953 13.262z" fill="#2e3092"/>
  </g>
  <g clip-path="url(#clipPath1919)">
   <path d="m12.965 104.22 0.019-17.531 2.313 3e-3 -0.012 8.633 7.141-8.625 2.488 8e-3 -6.883 8.348 8.067 9.179-3.164-4e-3 -7.645-8.871-0.012 8.864z" fill="#2e3092"/>
  </g>
  <g clip-path="url(#clipPath1933)">
   <path d="m33.641 104.24 0.019-17.531 2.473 4e-3 -0.02 17.531z" fill="#2e3092"/>
  </g>
  <g clip-path="url(#clipPath1947)">
   <path d="m45.461 104.26 0.019-17.531h2.332l-0.011 8.632 7.117-8.625 2.496 8e-3 -6.883 8.352 8.071 9.176-3.164-4e-3 -7.637-8.871-8e-3 8.863z" fill="#2e3092"/>
  </g>
  <g clip-path="url(#clipPath1961)">
   <path d="m66.141 104.28 0.019-17.531h2.461l-0.019 17.531z" fill="#2e3092"/>
  </g>
  <g clip-path="url(#clipPath1975)">
   <path d="m77.961 104.3 0.019-17.531 2.446 7e-3 8.812 13.5 0.016-13.496h2.137l-0.016 17.532h-2.43l-8.828-13.551-0.015 13.539z" fill="#2e3092"/>
  </g>
 </g>
</svg>
